<?xml version="1.0" encoding="utf-8"?>
<!-- Generator: Adobe Illustrator 22.1.0, SVG Export Plug-In . SVG Version: 6.00 Build 0)  -->
<svg version="1.1" id="Layer_1" xmlns="http://www.w3.org/2000/svg" xmlns:xlink="http://www.w3.org/1999/xlink" x="0px" y="0px"
	 viewBox="0 0 292.5 15.6" style="enable-background:new 0 0 292.5 15.6;" xml:space="preserve">
<style type="text/css">
	.st0{fill-rule:evenodd;clip-rule:evenodd;fill:#FFFFFF;}
</style>
<g>
	<path class="st0" d="M0,15V0h3.7v15H0z M12.2,15V0h7.7c1.9,0,3.3,0.1,4.2,0.4c0.9,0.3,1.6,0.8,2.1,1.4c0.5,0.7,0.8,1.5,0.8,2.4
		c0,1.1-0.4,2-1.2,2.8c-0.8,0.7-2,1.2-3.6,1.4c0.8,0.4,1.4,0.8,2,1.3c0.5,0.5,1.2,1.3,2.1,2.4l2.2,2.9H24l-2.6-3.3
		c-0.9-1.2-1.6-1.9-1.9-2.2c-0.3-0.3-0.7-0.5-1.1-0.6c-0.3-0.1-0.5-0.1-1.1-0.2V6.3h1.2c1.8,0,2.9-0.1,3.3-0.2
		c0.4-0.1,0.8-0.3,1-0.7c0.3-0.3,0.4-0.7,0.4-1.1c0-0.5-0.2-0.9-0.5-1.2c-0.3-0.3-0.8-0.5-1.4-0.6c-0.3-0.1-1.2-0.1-2.6-0.1h-2.9
		c0,4.2,0,8.2,0,12.5H12.2z M35.3,15V0h3.6v15H35.3z M45.6,15l6.2-7.8L46.1,0h4.3L54,4.8L57.5,0h4.2l-5.6,7.3l6.2,7.7h-4.4l-4-5.2
		l-4,5.2H45.6z"/>
	<path class="st0" d="M278.6,15.3v-15h5.8c2.2,0,3.7,0.1,4.3,0.2c1,0.2,1.9,0.7,2.6,1.5c0.7,0.8,1,1.7,1,2.9c0,0.9-0.2,1.7-0.6,2.3
		c-0.4,0.6-0.9,1.1-1.5,1.5c-0.6,0.3-1.2,0.6-1.9,0.7c-0.9,0.1-2.1,0.2-3.8,0.2h-1V7.1h0.6c1.4,0,2.4-0.1,2.9-0.2
		c0.5-0.2,0.9-0.4,1.1-0.7c0.3-0.3,0.4-0.7,0.4-1.2c0-0.6-0.2-1-0.6-1.4c-0.4-0.4-0.9-0.6-1.4-0.7c-0.5-0.1-1.3-0.1-2.6-0.1h-1.8
		c0,4.2,0,8.3,0,12.5H278.6z M258.9,0.3h3.6v8.1c0,1.3,0.1,2.1,0.1,2.5c0.1,0.6,0.5,1.1,1.1,1.5c0.6,0.4,1.4,0.6,2.4,0.6
		c1,0,1.8-0.2,2.4-0.5c0.5-0.3,0.8-0.8,0.9-1.3c0.1-0.5,0.2-1.4,0.2-2.6V0.3h3.6v7.9c0,1.8-0.1,3.1-0.3,3.8
		c-0.2,0.7-0.6,1.4-1.1,1.9c-0.5,0.5-1.2,0.9-2.1,1.2c-0.9,0.3-2,0.5-3.5,0.5c-1.7,0-3-0.1-3.9-0.5c-0.9-0.3-1.6-0.8-2.1-1.3
		c-0.5-0.5-0.9-1.1-1-1.7c-0.2-0.9-0.3-2.1-0.3-3.8V0.3z M239.7,7.8c0,1.7,0.5,3,1.4,3.9c0.9,0.9,2.1,1.3,3.6,1.3
		c1.5,0,2.7-0.4,3.6-1.3c0.9-0.9,1.4-2.2,1.4-3.9c0-1.7-0.5-3-1.4-3.9c-0.9-0.8-2.1-1.2-3.6-1.2S242,3,241.1,3.9
		C240.2,4.7,239.7,6,239.7,7.8L239.7,7.8z M235.9,7.9c0-1.5,0.3-2.8,0.8-3.9c0.4-0.7,1-1.4,1.7-2c0.7-0.6,1.5-1.1,2.3-1.4
		c1.1-0.4,2.4-0.6,3.9-0.6c2.7,0,4.8,0.7,6.4,2.1c1.6,1.4,2.4,3.3,2.4,5.7s-0.8,4.3-2.4,5.7c-1.6,1.4-3.7,2-6.3,2
		c-2.7,0-4.8-0.7-6.4-2C236.7,12.1,235.9,10.3,235.9,7.9L235.9,7.9z M214.3,15.3v-15h7.7c1.9,0,3.3,0.1,4.2,0.4
		c0.9,0.3,1.6,0.8,2.1,1.4c0.5,0.7,0.8,1.5,0.8,2.4c0,1.1-0.4,2-1.2,2.8c-0.8,0.7-2,1.2-3.6,1.4c0.8,0.4,1.4,0.8,2,1.3
		c0.5,0.5,1.2,1.3,2.1,2.4l2.2,2.9h-4.4l-2.6-3.3c-1-1.2-1.6-1.9-1.9-2.2c-0.3-0.3-0.7-0.5-1.1-0.6c-0.3-0.1-0.6-0.1-1.1-0.1V6.6
		h1.2c1.8,0,2.9-0.1,3.3-0.2c0.4-0.1,0.8-0.3,1-0.7c0.3-0.3,0.4-0.7,0.4-1.1c0-0.5-0.2-0.9-0.5-1.2c-0.3-0.3-0.8-0.5-1.4-0.6
		c-0.3-0.1-1.2-0.1-2.6-0.1h-2.9c0,4.2,0,8.3,0,12.5H214.3z M201,9.8V7.2h7.9v6c-0.8,0.6-1.9,1.2-3.3,1.6c-1.5,0.5-2.9,0.7-4.4,0.7
		c-1.9,0-3.5-0.3-4.9-1c-1.4-0.7-2.5-1.6-3.1-2.8c-0.7-1.2-1.1-2.6-1.1-4c0-1.6,0.4-2.9,1.2-4.2s1.9-2.2,3.5-2.8
		c1.2-0.5,2.6-0.8,4.3-0.8c2.2,0,4,0.4,5.3,1.2c1.2,0.8,2.1,1.9,2.4,3.3L205,5c-0.3-0.7-0.7-1.3-1.4-1.8c-0.7-0.4-1.6-0.6-2.6-0.6
		c-1.6,0-2.8,0.4-3.8,1.2c-0.9,0.9-1.4,2.1-1.4,3.7c0,1.8,0.5,3.1,1.4,4c1,0.9,2.2,1.3,3.7,1.3c0.8,0,1.5-0.1,2.3-0.4
		c0.8-0.3,1.4-0.6,2-0.9V9.8H201z M165.8,15.3v-15h3.5l7.4,10v-10h3.4v15h-3.7l-7.3-9.8v9.8H165.8z M152.5,9.8V7.2h7.9v6
		c-0.8,0.6-1.9,1.2-3.3,1.6c-1.4,0.5-2.9,0.7-4.4,0.7c-1.9,0-3.5-0.3-5-1c-1.4-0.7-2.4-1.6-3.1-2.8c-0.7-1.2-1.1-2.6-1.1-4
		c0-1.6,0.4-2.9,1.2-4.2s1.9-2.2,3.5-2.8c1.2-0.5,2.6-0.8,4.3-0.8c2.2,0,4,0.4,5.2,1.2c1.2,0.8,2.1,1.9,2.4,3.3L156.5,5
		c-0.3-0.7-0.7-1.3-1.4-1.8s-1.6-0.6-2.6-0.6c-1.6,0-2.9,0.4-3.8,1.2c-1,0.9-1.4,2.1-1.4,3.7c0,1.8,0.5,3.1,1.4,4
		c1,0.9,2.2,1.3,3.7,1.3c0.8,0,1.5-0.1,2.3-0.4c0.8-0.3,1.4-0.6,2-0.9V9.8H152.5z M134.4,15.3v-15h3.6v15H134.4z M114.3,10.4
		l3.5-0.3c0.2,1,0.7,1.7,1.3,2.2c0.7,0.5,1.5,0.7,2.6,0.7c1.2,0,2.1-0.2,2.7-0.6c0.6-0.4,0.9-0.9,0.9-1.4c0-0.3-0.1-0.7-0.4-0.9
		c-0.3-0.3-0.7-0.5-1.3-0.7c-0.4-0.1-1.4-0.3-2.9-0.7c-2-0.4-3.3-0.9-4.1-1.5c-1.1-0.9-1.7-1.8-1.7-3c0-0.8,0.3-1.5,0.8-2.2
		c0.5-0.7,1.3-1.2,2.2-1.5c1-0.3,2.2-0.5,3.5-0.5c2.3,0,4,0.4,5.1,1.2c1.1,0.8,1.8,1.9,1.8,3.3l-3.7,0.1c-0.1-0.8-0.5-1.3-1-1.6
		c-0.5-0.3-1.3-0.5-2.3-0.5c-1,0-1.9,0.2-2.5,0.5c-0.4,0.2-0.6,0.5-0.6,0.9c0,0.3,0.2,0.7,0.5,0.9c0.5,0.3,1.6,0.7,3.3,1
		c1.8,0.4,3.1,0.7,3.9,1.1c0.9,0.4,1.5,0.9,2,1.5c0.5,0.7,0.7,1.4,0.7,2.4c0,0.9-0.3,1.7-0.9,2.4c-0.6,0.8-1.4,1.3-2.4,1.7
		c-1.1,0.4-2.4,0.6-3.9,0.6c-2.3,0-4-0.5-5.3-1.3C115.3,13.4,114.6,12.1,114.3,10.4L114.3,10.4z M100.4,6.1h7.5v2.6h-7.5V6.1z
		 M95.2,15.3v-15h13.4v2.6h-9.7v2.1h0v5.4h0v2.5h10.1v2.5H95.2z M78.3,2.8v9.9H81c1,0,1.8-0.1,2.2-0.1c0.6-0.1,1.1-0.3,1.5-0.6
		c0.4-0.3,0.7-0.8,0.9-1.4C85.9,9.9,86,9,86,7.8s-0.1-2.1-0.4-2.7c-0.2-0.6-0.6-1.1-1-1.4c-0.5-0.3-1-0.6-1.7-0.7
		c-0.5-0.1-1.5-0.1-3-0.1H78.3z M74.7,0.3h6.7c1.5,0,2.7,0.1,3.5,0.3c1,0.3,2,0.7,2.7,1.4c0.8,0.7,1.3,1.5,1.7,2.4s0.6,2.2,0.6,3.5
		c0,1.2-0.2,2.3-0.5,3.2c-0.5,1.1-1.1,2-2,2.7c-0.6,0.5-1.5,0.9-2.6,1.2c-0.8,0.2-1.9,0.3-3.2,0.3h-6.9V0.3z"/>
</g>
</svg>
