<?xml version="1.0" encoding="utf-8"?>
<!-- Generator: Adobe Illustrator 22.1.0, SVG Export Plug-In . SVG Version: 6.00 Build 0)  -->
<svg version="1.1" id="Layer_1" xmlns="http://www.w3.org/2000/svg" xmlns:xlink="http://www.w3.org/1999/xlink" x="0px" y="0px"
	 viewBox="0 0 585.9 31.2" style="enable-background:new 0 0 585.9 31.2;" xml:space="preserve">
<style type="text/css">
	.st0{fill-rule:evenodd;clip-rule:evenodd;fill:#0FBFFF;}
	.st1{fill-rule:evenodd;clip-rule:evenodd;fill:#FFFFFF;}
</style>
<g>
	<path class="st0" d="M0,30.1V0h7.3v30.1H0z M24.3,30.1V0h15.4c3.9,0,6.7,0.3,8.4,0.8c1.7,0.5,3.1,1.5,4.2,2.9c1,1.4,1.6,3,1.6,4.8
		c0,2.2-0.8,4.1-2.4,5.6c-1.6,1.5-4,2.4-7.1,2.8c1.6,0.8,2.9,1.6,3.9,2.6c1,0.9,2.4,2.5,4.1,4.9l4.4,5.9h-8.7l-5.3-6.5
		c-1.9-2.4-3.1-3.8-3.9-4.4c-0.7-0.6-1.4-1-2.2-1.2c-0.6-0.2-1-0.3-2.2-0.3v-4.8H37c3.5,0,5.7-0.1,6.6-0.4c0.9-0.2,1.6-0.7,2-1.3
		c0.5-0.6,0.7-1.3,0.7-2.2c0-1-0.3-1.8-1-2.5c-0.7-0.6-1.6-1-2.7-1.2c-0.6-0.1-2.4-0.1-5.3-0.1h-5.7c0,8.4,0,16.5,0,25H24.3z
		 M70.6,30.1V0h7.3v30.1H70.6z M91.2,30.1l12.4-15.7L92.4,0h8.5l7.3,9.7l7.1-9.7h8.5l-11.3,14.6l12.4,15.5h-8.8l-8-10.4l-8,10.4
		H91.2z"/>
	<path class="st1" d="M558.2,30.6V0.5h11.7c4.4,0,7.3,0.2,8.7,0.5c2.1,0.5,3.8,1.4,5.2,2.9c1.4,1.5,2.1,3.5,2.1,5.9
		c0,1.8-0.4,3.4-1.2,4.6c-0.8,1.3-1.8,2.3-3.1,3c-1.2,0.7-2.5,1.2-3.8,1.4c-1.7,0.3-4.3,0.5-7.6,0.5h-1.9v-5.1h1.1
		c2.9,0,4.8-0.1,5.8-0.5c1-0.3,1.7-0.8,2.3-1.5c0.5-0.7,0.8-1.4,0.8-2.3c0-1.1-0.4-2-1.2-2.7c-0.8-0.7-1.8-1.2-2.9-1.3
		c-0.9-0.1-2.6-0.2-5.3-0.2h-3.5c0,8.3,0,16.6,0,25H558.2z M518.5,0.5h7.3v16.3c0,2.6,0.1,4.3,0.3,5c0.3,1.2,1.1,2.2,2.2,2.9
		c1.2,0.8,2.8,1.1,4.8,1.1c2.1,0,3.6-0.3,4.7-1c1-0.7,1.7-1.6,1.9-2.6c0.2-1,0.3-2.7,0.3-5.1V0.5h7.3v15.8c0,3.6-0.2,6.2-0.6,7.7
		c-0.4,1.5-1.1,2.7-2.2,3.8c-1,1-2.5,1.8-4.3,2.4c-1.8,0.6-4.1,0.9-6.9,0.9c-3.5,0-6.1-0.3-7.9-1c-1.8-0.7-3.2-1.5-4.2-2.6
		c-1-1-1.7-2.2-2.1-3.3c-0.5-1.7-0.7-4.3-0.7-7.6V0.5z M480.1,15.5c0,3.4,0.9,6,2.8,7.8s4.3,2.6,7.2,2.6c2.9,0,5.3-0.9,7.2-2.6
		c1.8-1.8,2.8-4.4,2.8-7.9c0-3.5-0.9-6-2.7-7.7c-1.8-1.7-4.2-2.6-7.2-2.6c-3,0-5.4,0.9-7.3,2.6C481,9.5,480.1,12.1,480.1,15.5
		L480.1,15.5z M472.6,15.8c0-3.1,0.5-5.6,1.6-7.7c0.8-1.5,1.9-2.9,3.4-4.1c1.4-1.2,3-2.1,4.6-2.7c2.3-0.8,4.8-1.2,7.8-1.2
		c5.3,0,9.6,1.4,12.8,4.1c3.2,2.7,4.8,6.6,4.8,11.5c0,4.8-1.6,8.6-4.8,11.4s-7.4,4.1-12.7,4.1c-5.4,0-9.7-1.4-12.8-4.1
		C474.2,24.3,472.6,20.6,472.6,15.8L472.6,15.8z M429.2,30.6V0.5h15.4c3.9,0,6.7,0.3,8.4,0.8c1.7,0.5,3.1,1.5,4.2,2.9
		c1,1.4,1.6,3,1.6,4.8c0,2.2-0.8,4.1-2.4,5.6c-1.6,1.5-4,2.4-7.1,2.8c1.6,0.8,2.9,1.6,3.9,2.6c1,0.9,2.4,2.5,4.1,4.9l4.4,5.9H453
		l-5.3-6.5c-1.9-2.4-3.1-3.8-3.9-4.4c-0.7-0.6-1.4-1-2.2-1.2c-0.5-0.2-1.2-0.3-2.2-0.3v-4.8h2.4c3.5,0,5.7-0.1,6.5-0.4
		c0.9-0.2,1.6-0.7,2-1.3c0.5-0.6,0.7-1.3,0.7-2.2c0-1-0.3-1.8-1-2.5s-1.6-1-2.7-1.2c-0.6-0.1-2.4-0.1-5.3-0.1h-5.7
		c0,8.4,0,16.6,0,25H429.2z M402.7,19.6v-5.1h15.7v12c-1.5,1.2-3.7,2.3-6.7,3.3c-2.9,0.9-5.8,1.4-8.8,1.4c-3.8,0-7.1-0.7-9.9-2
		c-2.8-1.3-4.9-3.2-6.3-5.7c-1.4-2.4-2.1-5.1-2.1-8c0-3.1,0.8-5.9,2.4-8.4c1.6-2.4,3.9-4.3,6.9-5.6c2.3-1,5.2-1.5,8.6-1.5
		c4.5,0,8,0.8,10.5,2.4c2.5,1.6,4.2,3.7,4.9,6.5l-7.2,1.1c-0.5-1.5-1.5-2.6-2.9-3.5c-1.4-0.9-3.1-1.3-5.3-1.3
		c-3.2,0-5.7,0.9-7.6,2.5c-1.9,1.7-2.8,4.2-2.8,7.5c0,3.6,1,6.2,2.9,8.1c1.9,1.8,4.4,2.7,7.5,2.7c1.5,0,3.1-0.3,4.6-0.8
		c1.5-0.5,2.9-1.1,4-1.8v-3.8H402.7z M332.1,30.6V0.5h7.1L354,20.6V0.5h6.8v30.1h-7.3L338.9,11v19.6H332.1z M305.5,19.6v-5.1h15.7
		v12c-1.5,1.2-3.7,2.3-6.7,3.3c-2.9,0.9-5.8,1.4-8.8,1.4c-3.8,0-7.1-0.7-9.9-2c-2.8-1.3-4.9-3.2-6.3-5.7c-1.4-2.4-2.1-5.1-2.1-8
		c0-3.1,0.8-5.9,2.4-8.4c1.6-2.4,3.9-4.3,6.9-5.6c2.3-1,5.2-1.5,8.6-1.5c4.5,0,8,0.8,10.5,2.4c2.5,1.6,4.2,3.7,4.9,6.5l-7.2,1.1
		c-0.5-1.5-1.5-2.6-2.9-3.5c-1.4-0.9-3.1-1.3-5.3-1.3c-3.2,0-5.7,0.9-7.6,2.5c-1.9,1.7-2.8,4.2-2.8,7.5c0,3.6,0.9,6.2,2.8,8.1
		c1.9,1.8,4.4,2.7,7.5,2.7c1.5,0,3.1-0.3,4.6-0.8c1.5-0.5,2.9-1.1,4-1.8v-3.8H305.5z M269.3,30.6V0.5h7.3v30.1H269.3z M229.1,20.8
		l7.1-0.6c0.4,2,1.3,3.5,2.6,4.4c1.3,0.9,3.1,1.4,5.3,1.4c2.4,0,4.1-0.4,5.3-1.2c1.2-0.8,1.8-1.8,1.8-2.9c0-0.7-0.3-1.3-0.8-1.8
		c-0.5-0.5-1.4-1-2.6-1.3c-0.9-0.3-2.8-0.7-5.8-1.3c-3.9-0.8-6.7-1.8-8.2-3c-2.2-1.6-3.3-3.7-3.3-6.1c0-1.5,0.5-2.9,1.6-4.3
		c1-1.3,2.6-2.3,4.5-3c2-0.7,4.3-1,7.1-1c4.5,0,8,0.8,10.3,2.5c2.3,1.6,3.5,3.9,3.6,6.6l-7.3,0.3c-0.3-1.5-1-2.7-2-3.3
		c-1-0.7-2.6-1-4.6-1c-2.1,0-3.8,0.3-5,1.1c-0.8,0.5-1.2,1.1-1.2,1.9c0,0.7,0.4,1.3,1.1,1.8c0.9,0.7,3.2,1.3,6.7,2
		c3.5,0.7,6.2,1.4,7.9,2.2c1.7,0.7,3,1.8,4,3.1c1,1.3,1.4,2.9,1.4,4.8c0,1.7-0.6,3.3-1.7,4.8c-1.2,1.5-2.8,2.6-4.9,3.3
		c-2.1,0.7-4.7,1.1-7.9,1.1c-4.6,0-8.1-0.9-10.5-2.6C231,26.8,229.5,24.2,229.1,20.8L229.1,20.8z M201.2,12.3h15v5.1h-15V12.3z
		 M190.7,30.6V0.5h26.8v5.1H198v4.1h0v10.8h0v5h20.2v5.1H190.7z M156.9,5.6v19.9h5.4c2,0,3.5-0.1,4.4-0.3c1.2-0.3,2.2-0.7,2.9-1.2
		c0.8-0.6,1.4-1.6,1.9-2.9c0.5-1.3,0.7-3.2,0.7-5.5s-0.3-4.1-0.7-5.4c-0.5-1.2-1.2-2.2-2.1-2.9c-0.9-0.7-2-1.2-3.4-1.4
		c-1-0.2-3-0.3-6-0.3H156.9z M149.6,0.5h13.3c3,0,5.3,0.2,6.9,0.6c2.1,0.5,3.9,1.4,5.4,2.8c1.5,1.3,2.7,2.9,3.5,4.9s1.2,4.3,1.2,7.1
		c0,2.5-0.4,4.6-1.1,6.4c-0.9,2.2-2.2,4-3.9,5.3c-1.3,1-3,1.8-5.1,2.4c-1.6,0.4-3.8,0.6-6.5,0.6h-13.7V0.5z"/>
</g>
</svg>
